<svg width="338" height="227" viewBox="0 0 338 227" fill="none" xmlns="http://www.w3.org/2000/svg">
<line y1="-0.5" x2="57.9481" y2="-0.5" transform="matrix(0.992704 0.120578 -0.151328 0.988484 127.163 51.0754)" stroke="#555555"/>
<line x1="337.304" y1="19.6905" x2="272.304" y2="69.3972" stroke="#555555"/>
<path d="M227.763 133.121L143.506 116.872" stroke="#555555"/>
<line y1="-0.5" x2="211.662" y2="-0.5" transform="matrix(-0.996761 -0.0804214 0.101169 -0.994869 336.833 18.0222)" stroke="#555555"/>
<line y1="-0.5" x2="18.5108" y2="-0.5" transform="matrix(0.953485 0.301441 -0.370162 0.928968 125.856 127.596)" stroke="#555555"/>
<line y1="-0.5" x2="151.618" y2="-0.5" transform="matrix(-0.711394 0.702794 -0.77968 -0.626179 337 119.444)" stroke="#555555"/>
<line y1="-0.5" x2="73.9949" y2="-0.5" transform="matrix(-0.93644 -0.350827 0.42698 -0.904261 70.2918 158.796)" stroke="#555555"/>
<line y1="-0.5" x2="65.5576" y2="-0.5" transform="matrix(0.877476 -0.479621 0.567317 0.823499 69.6382 159.039)" stroke="#555555"/>
<line y1="-0.5" x2="93.4165" y2="-0.5" transform="matrix(0.013996 0.999902 -0.999938 0.0111048 227.833 132.594)" stroke="#555555"/>
<line x1="337.5" y1="19.2934" x2="337.5" y2="119.444" stroke="#555555"/>
<path d="M1.3269 86.5941L1.3269 132.836" stroke="#555555"/>
<path d="M69.6381 100.569L69.9139 159.036" stroke="#555555"/>
<path d="M143.506 116.872L143.833 188.736" stroke="#555555"/>
<line x1="126.356" y1="51.0754" x2="126.356" y2="127.353" stroke="#555555"/>
<path d="M143.646 188.229L229.14 225.757" stroke="#555555"/>
<line y1="-0.5" x2="69.4058" y2="-0.5" transform="matrix(-0.97952 -0.201345 0.250796 -0.96804 69.6381 100.569)" stroke="#555555"/>
<line y1="-0.5" x2="66.4396" y2="-0.5" transform="matrix(0.708123 -0.706089 0.761232 0.64848 1 87.1763)" stroke="#555555"/>
<line y1="-0.5" x2="72.1724" y2="-0.5" transform="matrix(-0.579675 0.814848 -0.870857 -0.491536 184.689 58.0627)" stroke="#555555"/>
<line x1="228.076" y1="132.308" x2="271.589" y2="69.7146" stroke="#555555"/>
<line y1="-0.5" x2="76.7616" y2="-0.5" transform="matrix(0.757918 -0.65235 0.735268 0.677777 68.3307 101.151)" stroke="#555555"/>
<line y1="-0.5" x2="87.1419" y2="-0.5" transform="matrix(0.892738 -0.450576 0.510808 0.859695 48.0474 40.264)" stroke="#555555"/>
</svg>
