<svg width="399" height="329" viewBox="0 0 399 329" fill="none" xmlns="http://www.w3.org/2000/svg">
<path d="M399 35H0V329H399V35Z" fill="#E6E6E6"/>
<path d="M103.704 91.4564H31.5723V147.804H103.704V91.4564Z" fill="white"/>
<path d="M193.333 91.4564H121.201V147.804H193.333V91.4564Z" fill="white"/>
<path d="M282.961 91.4564H210.83V147.804H282.961V91.4564Z" fill="white"/>
<path d="M372.59 91.4564H300.459V147.804H372.59V91.4564Z" fill="white"/>
<path d="M103.704 171.21H31.5723V227.557H103.704V171.21Z" fill="white"/>
<path d="M193.333 171.21H121.201V227.557H193.333V171.21Z" fill="white"/>
<path d="M282.961 171.21H210.83V227.557H282.961V171.21Z" fill="white"/>
<path d="M372.59 171.21H300.459V227.557H372.59V171.21Z" fill="white"/>
<path d="M103.704 250.963H31.5723V307.311H103.704V250.963Z" fill="white"/>
<path d="M193.333 250.963H121.201V307.311H193.333V250.963Z" fill="white"/>
<path d="M282.961 250.963H210.83V307.311H282.961V250.963Z" fill="white"/>
<path d="M372.59 250.963H300.459V307.311H372.59V250.963Z" fill="white"/>
<path d="M108.31 69.3508C114.286 69.3508 119.13 63.529 119.13 56.3475C119.13 49.166 114.286 43.3442 108.31 43.3442C102.335 43.3442 97.4905 49.166 97.4905 56.3475C97.4905 63.529 102.335 69.3508 108.31 69.3508Z" fill="white"/>
<path d="M287.196 69.3508C293.172 69.3508 298.016 63.529 298.016 56.3475C298.016 49.166 293.172 43.3442 287.196 43.3442C281.221 43.3442 276.377 49.166 276.377 56.3475C276.377 63.529 281.221 69.3508 287.196 69.3508Z" fill="white"/>
<path d="M112.638 0H103.982V59.815H112.638V0Z" fill="#E6E6E6"/>
<path d="M291.524 0H282.868V59.815H291.524V0Z" fill="#E6E6E6"/>
<rect x="42" y="103" width="52" height="34" fill="#C4C4C4"/>
<rect x="50.6015" y="113" width="8.21053" height="13.5" fill="#E6E6E6"/>
<rect x="73.6692" y="113" width="8.21053" height="13.5" fill="#E6E6E6"/>
<rect x="131" y="103" width="52" height="34" fill="#C4C4C4"/>
<rect x="139.602" y="113" width="8.21053" height="13.5" fill="#E6E6E6"/>
<rect x="162.669" y="113" width="8.21053" height="13.5" fill="#E6E6E6"/>
<rect x="220" y="103" width="52" height="34" fill="#C4C4C4"/>
<rect x="228.602" y="113" width="8.21053" height="13.5" fill="#E6E6E6"/>
<rect x="251.669" y="113" width="8.21053" height="13.5" fill="#E6E6E6"/>
<rect x="309" y="103" width="52" height="34" fill="#C4C4C4"/>
<rect x="317.602" y="113" width="8.21053" height="13.5" fill="#E6E6E6"/>
<rect x="340.669" y="113" width="8.21053" height="13.5" fill="#E6E6E6"/>
<rect x="42" y="182" width="52" height="34" fill="#C4C4C4"/>
<rect x="50.6015" y="192" width="8.21053" height="13.5" fill="#E6E6E6"/>
<rect x="73.6692" y="192" width="8.21053" height="13.5" fill="#E6E6E6"/>
</svg>
